<svg id="visual" viewBox="0 0 960 300" width="960" height="300" xmlns="http://www.w3.org/2000/svg" xmlns:xlink="http://www.w3.org/1999/xlink" version="1.1"><path d="M0 183L96 176L192 203L288 196L384 187L480 173L576 189L672 183L768 181L864 189L960 177L960 301L864 301L768 301L672 301L576 301L480 301L384 301L288 301L192 301L96 301L0 301Z" fill="#202731"></path><path d="M0 213L96 205L192 199L288 206L384 200L480 189L576 204L672 209L768 192L864 187L960 189L960 301L864 301L768 301L672 301L576 301L480 301L384 301L288 301L192 301L96 301L0 301Z" fill="#334d69"></path><path d="M0 205L96 208L192 220L288 219L384 221L480 200L576 215L672 214L768 213L864 220L960 209L960 301L864 301L768 301L672 301L576 301L480 301L384 301L288 301L192 301L96 301L0 301Z" fill="#4376a7"></path><path d="M0 219L96 227L192 214L288 229L384 213L480 224L576 216L672 233L768 230L864 215L960 218L960 301L864 301L768 301L672 301L576 301L480 301L384 301L288 301L192 301L96 301L0 301Z" fill="#4ea3e9"></path><path d="M0 226L96 230L192 235L288 235L384 231L480 226L576 232L672 239L768 245L864 232L960 244L960 301L864 301L768 301L672 301L576 301L480 301L384 301L288 301L192 301L96 301L0 301Z" fill="#4facf7"></path><path d="M0 258L96 245L192 239L288 250L384 246L480 243L576 241L672 253L768 245L864 239L960 246L960 301L864 301L768 301L672 301L576 301L480 301L384 301L288 301L192 301L96 301L0 301Z" fill="#4ea3e9"></path><path d="M0 255L96 266L192 259L288 265L384 256L480 261L576 264L672 252L768 264L864 257L960 265L960 301L864 301L768 301L672 301L576 301L480 301L384 301L288 301L192 301L96 301L0 301Z" fill="#4376a7"></path><path d="M0 272L96 268L192 271L288 274L384 268L480 266L576 271L672 270L768 270L864 269L960 268L960 301L864 301L768 301L672 301L576 301L480 301L384 301L288 301L192 301L96 301L0 301Z" fill="#334d69"></path><path d="M0 289L96 279L192 286L288 279L384 280L480 284L576 284L672 286L768 282L864 289L960 281L960 301L864 301L768 301L672 301L576 301L480 301L384 301L288 301L192 301L96 301L0 301Z" fill="#202731"></path></svg>