<svg id="visual" viewBox="0 0 960 300" width="960" height="300" xmlns="http://www.w3.org/2000/svg" xmlns:xlink="http://www.w3.org/1999/xlink" version="1.1"><path d="M0 171L80 178L160 169L240 183L320 158L400 155L480 176L560 156L640 180L720 176L800 155L880 183L960 164L960 301L880 301L800 301L720 301L640 301L560 301L480 301L400 301L320 301L240 301L160 301L80 301L0 301Z" fill="#202731"></path><path d="M0 204L80 205L160 190L240 205L320 205L400 184L480 200L560 193L640 199L720 181L800 190L880 192L960 183L960 301L880 301L800 301L720 301L640 301L560 301L480 301L400 301L320 301L240 301L160 301L80 301L0 301Z" fill="#9ca3ab"></path><path d="M0 229L80 233L160 206L240 206L320 212L400 214L480 223L560 231L640 231L720 212L800 234L880 225L960 223L960 301L880 301L800 301L720 301L640 301L560 301L480 301L400 301L320 301L240 301L160 301L80 301L0 301Z" fill="#f2f8ff"></path><path d="M0 253L80 239L160 231L240 246L320 251L400 236L480 255L560 242L640 236L720 259L800 255L880 259L960 253L960 301L880 301L800 301L720 301L640 301L560 301L480 301L400 301L320 301L240 301L160 301L80 301L0 301Z" fill="#9ca3ab"></path><path d="M0 274L80 266L160 277L240 260L320 276L400 267L480 276L560 274L640 266L720 275L800 258L880 262L960 267L960 301L880 301L800 301L720 301L640 301L560 301L480 301L400 301L320 301L240 301L160 301L80 301L0 301Z" fill="#202731"></path></svg>