<svg id="visual" viewBox="0 0 960 300" width="960" height="300" xmlns="http://www.w3.org/2000/svg" xmlns:xlink="http://www.w3.org/1999/xlink" version="1.1"><rect x="0" y="0" width="960" height="300" fill="#202731"></rect><path d="M0 77L137 112L274 121L411 113L549 109L686 81L823 123L960 113L960 0L823 0L686 0L549 0L411 0L274 0L137 0L0 0Z" fill="#bb3612"></path><path d="M0 101L137 100L274 89L411 96L549 90L686 97L823 70L960 73L960 0L823 0L686 0L549 0L411 0L274 0L137 0L0 0Z" fill="#a21e48"></path><path d="M0 50L137 59L274 77L411 77L549 46L686 67L823 60L960 54L960 0L823 0L686 0L549 0L411 0L274 0L137 0L0 0Z" fill="#6e2c5e"></path><path d="M0 52L137 32L274 51L411 36L549 54L686 50L823 53L960 47L960 0L823 0L686 0L549 0L411 0L274 0L137 0L0 0Z" fill="#383053"></path><path d="M0 12L137 29L274 31L411 35L549 27L686 13L823 17L960 12L960 0L823 0L686 0L549 0L411 0L274 0L137 0L0 0Z" fill="#202731"></path></svg>