<svg id="visual" viewBox="0 0 960 540" width="960" height="540" xmlns="http://www.w3.org/2000/svg" xmlns:xlink="http://www.w3.org/1999/xlink" version="1.1"><g><g transform="translate(433 169)"><path d="M0 -47.6L41.2 -23.8L41.2 23.8L0 47.6L-41.2 23.8L-41.2 -23.8Z" stroke="#25536a" fill="none" stroke-width="10"></path></g><g transform="translate(599 340)"><path d="M0 -46L39.8 -23L39.8 23L0 46L-39.8 23L-39.8 -23Z" stroke="#25536a" fill="none" stroke-width="10"></path></g><g transform="translate(49 248)"><path d="M0 -14L12.1 -7L12.1 7L0 14L-12.1 7L-12.1 -7Z" stroke="#25536a" fill="none" stroke-width="10"></path></g><g transform="translate(57 346)"><path d="M0 -34L29.4 -17L29.4 17L0 34L-29.4 17L-29.4 -17Z" stroke="#25536a" fill="none" stroke-width="10"></path></g><g transform="translate(367 455)"><path d="M0 -33L28.6 -16.5L28.6 16.5L0 33L-28.6 16.5L-28.6 -16.5Z" stroke="#25536a" fill="none" stroke-width="10"></path></g><g transform="translate(441 292)"><path d="M0 -38L32.9 -19L32.9 19L0 38L-32.9 19L-32.9 -19Z" stroke="#25536a" fill="none" stroke-width="10"></path></g><g transform="translate(203 49)"><path d="M0 -11L9.5 -5.5L9.5 5.5L0 11L-9.5 5.5L-9.5 -5.5Z" stroke="#25536a" fill="none" stroke-width="10"></path></g><g transform="translate(854 307)"><path d="M0 -41L35.5 -20.5L35.5 20.5L0 41L-35.5 20.5L-35.5 -20.5Z" stroke="#25536a" fill="none" stroke-width="10"></path></g><g transform="translate(304 349)"><path d="M0 -38L32.9 -19L32.9 19L0 38L-32.9 19L-32.9 -19Z" stroke="#25536a" fill="none" stroke-width="10"></path></g><g transform="translate(292 241)"><path d="M0 -44L38.1 -22L38.1 22L0 44L-38.1 22L-38.1 -22Z" stroke="#25536a" fill="none" stroke-width="10"></path></g><g transform="translate(770 261)"><path d="M0 -23L19.9 -11.5L19.9 11.5L0 23L-19.9 11.5L-19.9 -11.5Z" stroke="#25536a" fill="none" stroke-width="10"></path></g><g transform="translate(833 78)"><path d="M0 -37L32 -18.5L32 18.5L0 37L-32 18.5L-32 -18.5Z" stroke="#25536a" fill="none" stroke-width="10"></path></g><g transform="translate(610 447)"><path d="M0 -37L32 -18.5L32 18.5L0 37L-32 18.5L-32 -18.5Z" stroke="#25536a" fill="none" stroke-width="10"></path></g><g transform="translate(63 126)"><path d="M0 -45L39 -22.5L39 22.5L0 45L-39 22.5L-39 -22.5Z" stroke="#25536a" fill="none" stroke-width="10"></path></g><g transform="translate(125 482)"><path d="M0 -15L13 -7.5L13 7.5L0 15L-13 7.5L-13 -7.5Z" stroke="#25536a" fill="none" stroke-width="10"></path></g><g transform="translate(319 92)"><path d="M0 -35L30.3 -17.5L30.3 17.5L0 35L-30.3 17.5L-30.3 -17.5Z" stroke="#25536a" fill="none" stroke-width="10"></path></g><g transform="translate(708 60)"><path d="M0 -26L22.5 -13L22.5 13L0 26L-22.5 13L-22.5 -13Z" stroke="#25536a" fill="none" stroke-width="10"></path></g><g transform="translate(230 142)"><path d="M0 -15L13 -7.5L13 7.5L0 15L-13 7.5L-13 -7.5Z" stroke="#25536a" fill="none" stroke-width="10"></path></g><g transform="translate(184 314)"><path d="M0 -36L31.2 -18L31.2 18L0 36L-31.2 18L-31.2 -18Z" stroke="#25536a" fill="none" stroke-width="10"></path></g><g transform="translate(578 70)"><path d="M0 -29L25.1 -14.5L25.1 14.5L0 29L-25.1 14.5L-25.1 -14.5Z" stroke="#25536a" fill="none" stroke-width="10"></path></g><g transform="translate(654 162)"><path d="M0 -40L34.6 -20L34.6 20L0 40L-34.6 20L-34.6 -20Z" stroke="#25536a" fill="none" stroke-width="10"></path></g><g transform="translate(411 49)"><path d="M0 -39L33.8 -19.5L33.8 19.5L0 39L-33.8 19.5L-33.8 -19.5Z" stroke="#25536a" fill="none" stroke-width="10"></path></g><g transform="translate(895 171)"><path d="M0 -26L22.5 -13L22.5 13L0 26L-22.5 13L-22.5 -13Z" stroke="#25536a" fill="none" stroke-width="10"></path></g><g transform="translate(856 402)"><path d="M0 -23L19.9 -11.5L19.9 11.5L0 23L-19.9 11.5L-19.9 -11.5Z" stroke="#25536a" fill="none" stroke-width="10"></path></g><g transform="translate(534 203)"><path d="M0 -17L14.7 -8.5L14.7 8.5L0 17L-14.7 8.5L-14.7 -8.5Z" stroke="#25536a" fill="none" stroke-width="10"></path></g><g transform="translate(723 477)"><path d="M0 -38L32.9 -19L32.9 19L0 38L-32.9 19L-32.9 -19Z" stroke="#25536a" fill="none" stroke-width="10"></path></g><g transform="translate(150 205)"><path d="M0 -37L32 -18.5L32 18.5L0 37L-32 18.5L-32 -18.5Z" stroke="#25536a" fill="none" stroke-width="10"></path></g><g transform="translate(468 447)"><path d="M0 -14L12.1 -7L12.1 7L0 14L-12.1 7L-12.1 -7Z" stroke="#25536a" fill="none" stroke-width="10"></path></g><g transform="translate(749 363)"><path d="M0 -40L34.6 -20L34.6 20L0 40L-34.6 20L-34.6 -20Z" stroke="#25536a" fill="none" stroke-width="10"></path></g><g transform="translate(235 477)"><path d="M0 -14L12.1 -7L12.1 7L0 14L-12.1 7L-12.1 -7Z" stroke="#25536a" fill="none" stroke-width="10"></path></g><g transform="translate(766 164)"><path d="M0 -23L19.9 -11.5L19.9 11.5L0 23L-19.9 11.5L-19.9 -11.5Z" stroke="#25536a" fill="none" stroke-width="10"></path></g><g transform="translate(668 259)"><path d="M0 -22L19.1 -11L19.1 11L0 22L-19.1 11L-19.1 -11Z" stroke="#25536a" fill="none" stroke-width="10"></path></g><g transform="translate(901 487)"><path d="M0 -34L29.4 -17L29.4 17L0 34L-29.4 17L-29.4 -17Z" stroke="#25536a" fill="none" stroke-width="10"></path></g></g></svg>