<svg id="visual" viewBox="0 0 1920 1080" width="1920" height="1080" xmlns="http://www.w3.org/2000/svg" xmlns:xlink="http://www.w3.org/1999/xlink" version="1.1"><g><g transform="translate(1093 456)"><path d="M0 -95.2L82.4 -47.6L82.4 47.6L0 95.2L-82.4 47.6L-82.4 -47.6Z" fill="none" stroke="#25536a" stroke-width="10"></path></g><g transform="translate(1576 966)"><path d="M0 -25L21.7 -12.5L21.7 12.5L0 25L-21.7 12.5L-21.7 -12.5Z" fill="none" stroke="#25536a" stroke-width="10"></path></g><g transform="translate(382 202)"><path d="M0 -66L57.2 -33L57.2 33L0 66L-57.2 33L-57.2 -33Z" fill="none" stroke="#25536a" stroke-width="10"></path></g><g transform="translate(110 881)"><path d="M0 -30L26 -15L26 15L0 30L-26 15L-26 -15Z" fill="none" stroke="#25536a" stroke-width="10"></path></g><g transform="translate(419 495)"><path d="M0 -39L33.8 -19.5L33.8 19.5L0 39L-33.8 19.5L-33.8 -19.5Z" fill="none" stroke="#25536a" stroke-width="10"></path></g><g transform="translate(188 547)"><path d="M0 -69L59.8 -34.5L59.8 34.5L0 69L-59.8 34.5L-59.8 -34.5Z" fill="none" stroke="#25536a" stroke-width="10"></path></g><g transform="translate(1178 750)"><path d="M0 -62L53.7 -31L53.7 31L0 62L-53.7 31L-53.7 -31Z" fill="none" stroke="#25536a" stroke-width="10"></path></g><g transform="translate(1824 555)"><path d="M0 -94L81.4 -47L81.4 47L0 94L-81.4 47L-81.4 -47Z" fill="none" stroke="#25536a" stroke-width="10"></path></g><g transform="translate(125 348)"><path d="M0 -58L50.2 -29L50.2 29L0 58L-50.2 29L-50.2 -29Z" fill="none" stroke="#25536a" stroke-width="10"></path></g><g transform="translate(1792 777)"><path d="M0 -24L20.8 -12L20.8 12L0 24L-20.8 12L-20.8 -12Z" fill="none" stroke="#25536a" stroke-width="10"></path></g><g transform="translate(1558 264)"><path d="M0 -77L66.7 -38.5L66.7 38.5L0 77L-66.7 38.5L-66.7 -38.5Z" fill="none" stroke="#25536a" stroke-width="10"></path></g><g transform="translate(1743 374)"><path d="M0 -24L20.8 -12L20.8 12L0 24L-20.8 12L-20.8 -12Z" fill="none" stroke="#25536a" stroke-width="10"></path></g><g transform="translate(1423 570)"><path d="M0 -42L36.4 -21L36.4 21L0 42L-36.4 21L-36.4 -21Z" fill="none" stroke="#25536a" stroke-width="10"></path></g><g transform="translate(491 742)"><path d="M0 -60L52 -30L52 30L0 60L-52 30L-52 -30Z" fill="none" stroke="#25536a" stroke-width="10"></path></g><g transform="translate(1123 160)"><path d="M0 -92L79.7 -46L79.7 46L0 92L-79.7 46L-79.7 -46Z" fill="none" stroke="#25536a" stroke-width="10"></path></g><g transform="translate(1010 890)"><path d="M0 -57L49.4 -28.5L49.4 28.5L0 57L-49.4 28.5L-49.4 -28.5Z" fill="none" stroke="#25536a" stroke-width="10"></path></g><g transform="translate(712 759)"><path d="M0 -84L72.7 -42L72.7 42L0 84L-72.7 42L-72.7 -42Z" fill="none" stroke="#25536a" stroke-width="10"></path></g><g transform="translate(1783 176)"><path d="M0 -76L65.8 -38L65.8 38L0 76L-65.8 38L-65.8 -38Z" fill="none" stroke="#25536a" stroke-width="10"></path></g><g transform="translate(642 173)"><path d="M0 -60L52 -30L52 30L0 60L-52 30L-52 -30Z" fill="none" stroke="#25536a" stroke-width="10"></path></g><g transform="translate(1306 932)"><path d="M0 -88L76.2 -44L76.2 44L0 88L-76.2 44L-76.2 -44Z" fill="none" stroke="#25536a" stroke-width="10"></path></g><g transform="translate(1251 328)"><path d="M0 -40L34.6 -20L34.6 20L0 40L-34.6 20L-34.6 -20Z" fill="none" stroke="#25536a" stroke-width="10"></path></g><g transform="translate(630 384)"><path d="M0 -75L65 -37.5L65 37.5L0 75L-65 37.5L-65 -37.5Z" fill="none" stroke="#25536a" stroke-width="10"></path></g><g transform="translate(718 553)"><path d="M0 -33L28.6 -16.5L28.6 16.5L0 33L-28.6 16.5L-28.6 -16.5Z" fill="none" stroke="#25536a" stroke-width="10"></path></g><g transform="translate(783 946)"><path d="M0 -55L47.6 -27.5L47.6 27.5L0 55L-47.6 27.5L-47.6 -27.5Z" fill="none" stroke="#25536a" stroke-width="10"></path></g><g transform="translate(865 230)"><path d="M0 -27L23.4 -13.5L23.4 13.5L0 27L-23.4 13.5L-23.4 -13.5Z" fill="none" stroke="#25536a" stroke-width="10"></path></g><g transform="translate(1444 778)"><path d="M0 -79L68.4 -39.5L68.4 39.5L0 79L-68.4 39.5L-68.4 -39.5Z" fill="none" stroke="#25536a" stroke-width="10"></path></g><g transform="translate(356 883)"><path d="M0 -53L45.9 -26.5L45.9 26.5L0 53L-45.9 26.5L-45.9 -26.5Z" fill="none" stroke="#25536a" stroke-width="10"></path></g><g transform="translate(181 124)"><path d="M0 -68L58.9 -34L58.9 34L0 68L-58.9 34L-58.9 -34Z" fill="none" stroke="#25536a" stroke-width="10"></path></g><g transform="translate(881 659)"><path d="M0 -91L78.8 -45.5L78.8 45.5L0 91L-78.8 45.5L-78.8 -45.5Z" fill="none" stroke="#25536a" stroke-width="10"></path></g><g transform="translate(1642 612)"><path d="M0 -41L35.5 -20.5L35.5 20.5L0 41L-35.5 20.5L-35.5 -20.5Z" fill="none" stroke="#25536a" stroke-width="10"></path></g><g transform="translate(1361 169)"><path d="M0 -38L32.9 -19L32.9 19L0 38L-32.9 19L-32.9 -19Z" fill="none" stroke="#25536a" stroke-width="10"></path></g><g transform="translate(523 974)"><path d="M0 -46L39.8 -23L39.8 23L0 46L-39.8 23L-39.8 -23Z" fill="none" stroke="#25536a" stroke-width="10"></path></g><g transform="translate(1804 968)"><path d="M0 -70L60.6 -35L60.6 35L0 70L-60.6 35L-60.6 -35Z" fill="none" stroke="#25536a" stroke-width="10"></path></g><g transform="translate(885 451)"><path d="M0 -47L40.7 -23.5L40.7 23.5L0 47L-40.7 23.5L-40.7 -23.5Z" fill="none" stroke="#25536a" stroke-width="10"></path></g></g></svg>